<svg xmlns="http://www.w3.org/2000/svg" xmlns:xlink="http://www.w3.org/1999/xlink" width="4535" zoomAndPan="magnify" viewBox="0 0 3401.25 1700.999932" height="2268" preserveAspectRatio="xMidYMid meet" version="1.0"><defs><filter x="0%" y="0%" width="100%" height="100%" id="148d1e31e4"><feColorMatrix values="0 0 0 0 1 0 0 0 0 1 0 0 0 0 1 0 0 0 1 0" color-interpolation-filters="sRGB"/></filter><g/><clipPath id="64cc510cca"><path d="M 0 0.1875 L 3400.5 0.1875 L 3400.5 1700.8125 L 0 1700.8125 Z M 0 0.1875 " clip-rule="nonzero"/></clipPath><clipPath id="c7fc4c6ab6"><path d="M 0 0.1875 L 3400.175781 0.1875 L 3400.175781 1700.648438 L 0 1700.648438 Z M 0 0.1875 " clip-rule="nonzero"/></clipPath><clipPath id="9b419eb408"><path d="M 1174.292969 1244 L 2226.210938 1244 L 2226.210938 1306.410156 L 1174.292969 1306.410156 Z M 1174.292969 1244 " clip-rule="nonzero"/></clipPath><mask id="afb190e6f2"><g filter="url(#148d1e31e4)"><rect x="-748.275" width="4897.8" fill="#000000" y="-374.219985" height="2449.439902" fill-opacity="0.8"/></g></mask><clipPath id="f341e1c136"><path d="M 0.292969 0.3125 L 1052.210938 0.3125 L 1052.210938 62.410156 L 0.292969 62.410156 Z M 0.292969 0.3125 " clip-rule="nonzero"/></clipPath><clipPath id="50009c0d5e"><rect x="0" width="1053" y="0" height="63"/></clipPath><clipPath id="f4a7416cf7"><path d="M 0.078125 0.257812 L 927 0.257812 L 927 336.90625 L 0.078125 336.90625 Z M 0.078125 0.257812 " clip-rule="nonzero"/></clipPath><clipPath id="c4f2025284"><rect x="0" width="927" y="0" height="337"/></clipPath><clipPath id="9270cff513"><rect x="0" width="2351" y="0" height="337"/></clipPath><clipPath id="dc7b86a08e"><path d="M 1174.292969 1244 L 2226.210938 1244 L 2226.210938 1306.410156 L 1174.292969 1306.410156 Z M 1174.292969 1244 " clip-rule="nonzero"/></clipPath><mask id="6ed6726e6a"><g filter="url(#148d1e31e4)"><rect x="-748.275" width="4897.8" fill="#000000" y="-374.219985" height="2449.439902" fill-opacity="0.8"/></g></mask><clipPath id="754da7dff2"><path d="M 0.292969 0.3125 L 1052.210938 0.3125 L 1052.210938 62.410156 L 0.292969 62.410156 Z M 0.292969 0.3125 " clip-rule="nonzero"/></clipPath><clipPath id="8dee06ca58"><rect x="0" width="1053" y="0" height="63"/></clipPath><mask id="d89480a4a6"><g filter="url(#148d1e31e4)"><rect x="-748.275" width="4897.8" fill="#000000" y="-374.219985" height="2449.439902" fill-opacity="0.8"/></g></mask><clipPath id="2b1477f86e"><path d="M 0.292969 0.3125 L 1052.210938 0.3125 L 1052.210938 62.410156 L 0.292969 62.410156 Z M 0.292969 0.3125 " clip-rule="nonzero"/></clipPath><clipPath id="dc1e42a0cd"><rect x="0" width="1053" y="0" height="63"/></clipPath><mask id="9969c2f8f9"><g filter="url(#148d1e31e4)"><rect x="-748.275" width="4897.8" fill="#000000" y="-374.219985" height="2449.439902" fill-opacity="0.8"/></g></mask><clipPath id="bb6d0e34ca"><path d="M 0.292969 0.3125 L 1052.210938 0.3125 L 1052.210938 62.410156 L 0.292969 62.410156 Z M 0.292969 0.3125 " clip-rule="nonzero"/></clipPath><clipPath id="76568a12c6"><rect x="0" width="1053" y="0" height="63"/></clipPath><clipPath id="a38c9570c6"><rect x="0" width="3401" y="0" height="1701"/></clipPath></defs><g clip-path="url(#64cc510cca)"><path fill="#ffffff" d="M 0 0.1875 L 3400.5 0.1875 L 3400.5 1700.8125 L 0 1700.8125 Z M 0 0.1875 " fill-opacity="1" fill-rule="nonzero"/><g transform="matrix(1, 0, 0, 1, 0, 0.000000000000112577)"><g clip-path="url(#a38c9570c6)"><g clip-path="url(#c7fc4c6ab6)"><path fill="#ffffff" d="M 0 0.1875 L 3400.175781 0.1875 L 3400.175781 1700.648438 L 0 1700.648438 Z M 0 0.1875 " fill-opacity="1" fill-rule="nonzero"/></g><g clip-path="url(#9b419eb408)"><g mask="url(#afb190e6f2)"><g transform="matrix(1, 0, 0, 1, 1174, 1244)"><g clip-path="url(#50009c0d5e)"><g clip-path="url(#f341e1c136)"><path fill="#bf9a5a" d="M 1052.199219 8.84375 C 1044.65625 8.078125 1032.410156 7.203125 1017.757812 6.65625 C 1003.109375 6 985.832031 5.671875 968.121094 5.671875 C 932.804688 5.5625 895.523438 6.875 873 7.640625 C 855.617188 8.40625 842.386719 9.0625 832.4375 9.5 C 824.019531 9.9375 843.480469 8.734375 873 7.640625 C 886.230469 7.09375 901.863281 6.546875 920.125 6.109375 C 897.273438 6.328125 875.296875 6.875 859.550781 7.3125 C 847.964844 7.859375 836.375 8.515625 824.457031 9.171875 C 772.195312 12.230469 721.792969 16.277344 670.183594 20.542969 C 651.488281 22.179688 610.707031 25.679688 592.558594 27.210938 C 668.328125 20.214844 744.09375 13.433594 819.972656 8.84375 C 817.894531 8.953125 815.820312 9.0625 813.851562 9.171875 C 773.945312 11.574219 734.144531 14.527344 694.238281 17.808594 C 687.460938 18.355469 680.679688 18.902344 673.574219 19.558594 L 694.238281 17.808594 C 711.949219 16.277344 729.117188 14.746094 748.359375 13.214844 C 760.277344 12.339844 773.835938 11.464844 785.859375 10.703125 C 795.59375 10.046875 804.558594 9.609375 813.851562 9.171875 L 831.671875 8.1875 C 833.421875 8.078125 835.28125 7.96875 837.140625 7.859375 C 837.03125 7.859375 836.921875 7.859375 836.921875 7.859375 C 829.484375 7.75 788.15625 9.71875 745.625 12.667969 C 703.09375 15.621094 659.25 19.230469 646.789062 20.433594 C 627 22.289062 608.957031 24.804688 586.871094 26.882812 C 579.546875 27.648438 573.207031 27.976562 567.628906 28.742188 C 567.082031 28.960938 564.242188 29.289062 561.398438 29.617188 C 546.746094 31.039062 531.988281 32.023438 520.617188 33.441406 C 512.742188 34.316406 490.441406 34.535156 488.800781 35.082031 C 482.675781 36.941406 487.160156 35.628906 468.464844 37.160156 C 466.167969 37.378906 458.84375 38.582031 454.359375 38.910156 C 439.050781 40.003906 434.570312 40.878906 416.96875 42.519531 C 390.945312 45.25 385.152344 44.921875 362.082031 47.546875 C 360.660156 47.65625 350.929688 48.640625 341.527344 49.515625 C 332.125 50.390625 323.046875 51.15625 323.046875 51.15625 C 294.730469 53.015625 277.128906 54.761719 254.933594 54.980469 C 229.457031 57.058594 195.347656 57.277344 168.011719 57.386719 C 154.347656 57.386719 144.722656 57.058594 135.539062 56.511719 C 126.355469 55.964844 117.609375 55.199219 105.691406 53.996094 C 98.914062 53.34375 93.882812 52.90625 89.949219 52.25 C 86.011719 51.59375 76.390625 50.9375 69.722656 49.625 L 71.46875 49.515625 C 69.175781 49.078125 64.800781 48.203125 62.613281 47.765625 C 60.425781 47.21875 60.972656 47.21875 61.519531 47.21875 C 62.613281 47.21875 63.816406 47.21875 59.992188 46.234375 C 50.804688 44.046875 41.621094 41.316406 32.65625 37.378906 C 28.175781 35.519531 23.910156 33.441406 20.082031 30.929688 C 16.148438 28.414062 12.648438 25.351562 9.914062 21.746094 C 9.695312 21.527344 9.367188 21.308594 9.148438 20.980469 C 8.601562 20.433594 8.164062 19.777344 7.835938 19.121094 C 6.636719 17.042969 5.652344 14.855469 4.996094 12.558594 C 4.339844 11.03125 4.121094 11.683594 3.683594 10.59375 C 3.574219 10.59375 3.464844 10.484375 3.246094 10.15625 C 3.136719 9.828125 2.917969 9.390625 2.808594 8.84375 C 2.699219 8.296875 2.480469 7.640625 2.371094 6.984375 C 2.261719 6.328125 2.152344 5.5625 2.042969 4.90625 C 1.714844 2.0625 1.605469 -0.449219 0.949219 1.078125 C 0.621094 1.515625 0.402344 2.828125 0.292969 4.90625 C 0.292969 6.984375 0.292969 9.609375 0.839844 12.558594 C 1.824219 18.355469 5.214844 24.367188 7.730469 27.429688 C 8.273438 28.195312 7.835938 27.867188 6.964844 27.101562 C 6.199219 26.335938 5.105469 25.242188 4.449219 24.476562 C 5.980469 26.773438 7.292969 28.304688 8.273438 29.507812 C 8.710938 30.054688 9.148438 30.492188 9.476562 30.929688 C 9.804688 31.257812 10.023438 31.585938 10.242188 31.695312 C 10.898438 32.457031 10.023438 31.914062 8.382812 30.492188 C 9.257812 31.367188 10.242188 32.242188 10.898438 32.894531 C 11.554688 33.550781 12.101562 33.878906 12.101562 33.878906 C 11.882812 33.769531 11.335938 33.441406 10.789062 33.113281 C 10.351562 32.785156 9.914062 32.566406 9.914062 32.566406 C 12.429688 34.972656 13.960938 40.332031 16.804688 42.191406 C 19.644531 44.046875 23.691406 42.410156 26.753906 43.9375 C 32.765625 46.890625 39.109375 49.296875 45.449219 51.15625 C 58.132812 54.980469 71.03125 57.277344 83.058594 58.699219 C 88.199219 59.355469 96.835938 60.011719 102.519531 60.339844 C 105.363281 60.449219 111.597656 61.214844 113.890625 61.324219 C 117.9375 61.324219 117.390625 60.886719 119.03125 60.558594 C 127.886719 61.214844 141.882812 62.089844 153.472656 62.199219 C 165.0625 62.417969 174.355469 62.199219 173.808594 61.542969 C 188.019531 61.542969 190.863281 60.886719 205.625 60.449219 C 225.195312 59.902344 250.011719 58.699219 274.503906 57.277344 C 287.84375 56.402344 300.746094 55.527344 313.753906 54.761719 C 318.566406 54.433594 323.265625 54.105469 327.75 53.777344 C 376.292969 50.171875 418.386719 46.5625 460.152344 42.847656 C 501.917969 39.128906 543.359375 35.082031 590.589844 30.273438 C 638.152344 25.351562 686.914062 20.652344 734.144531 16.933594 C 781.378906 13.105469 826.972656 10.265625 868.191406 8.515625 C 909.410156 6.765625 946.035156 6.21875 975.445312 6.546875 C 1004.75 6.875 1026.726562 7.859375 1038.421875 8.515625 C 1043.015625 8.515625 1047.609375 8.734375 1052.199219 8.84375 Z M 1052.199219 8.84375 " fill-opacity="1" fill-rule="nonzero"/></g></g></g></g></g><g fill="#000000" fill-opacity="1"><g transform="translate(372.132839, 1040.518383)"><g><path d="M 38.5625 0 L 6.921875 0 L 6.921875 -54.953125 L 38.5625 -54.953125 L 38.5625 -45.40625 L 18.5625 -45.40625 L 18.5625 -33.328125 L 37.171875 -33.328125 L 37.171875 -23.796875 L 18.5625 -23.796875 L 18.5625 -9.625 L 38.5625 -9.625 Z M 38.5625 0 "/></g></g></g><g fill="#000000" fill-opacity="1"><g transform="translate(447.338303, 1040.518383)"><g><path d="M 39.34375 -15.265625 C 39.34375 -10.296875 37.554688 -6.382812 33.984375 -3.53125 C 30.421875 -0.675781 25.457031 0.75 19.09375 0.75 C 13.226562 0.75 8.039062 -0.351562 3.53125 -2.5625 L 3.53125 -13.375 C 7.238281 -11.726562 10.375 -10.566406 12.9375 -9.890625 C 15.507812 -9.210938 17.863281 -8.875 20 -8.875 C 22.550781 -8.875 24.507812 -9.359375 25.875 -10.328125 C 27.238281 -11.304688 27.921875 -12.757812 27.921875 -14.6875 C 27.921875 -15.769531 27.617188 -16.726562 27.015625 -17.5625 C 26.421875 -18.40625 25.539062 -19.210938 24.375 -19.984375 C 23.207031 -20.765625 20.832031 -22.007812 17.25 -23.71875 C 13.894531 -25.289062 11.375 -26.800781 9.6875 -28.25 C 8.007812 -29.707031 6.671875 -31.398438 5.671875 -33.328125 C 4.671875 -35.265625 4.171875 -37.519531 4.171875 -40.09375 C 4.171875 -44.957031 5.816406 -48.78125 9.109375 -51.5625 C 12.410156 -54.34375 16.96875 -55.734375 22.78125 -55.734375 C 25.632812 -55.734375 28.359375 -55.394531 30.953125 -54.71875 C 33.546875 -54.039062 36.253906 -53.085938 39.078125 -51.859375 L 35.328125 -42.8125 C 32.398438 -44.007812 29.976562 -44.84375 28.0625 -45.3125 C 26.144531 -45.789062 24.257812 -46.03125 22.40625 -46.03125 C 20.195312 -46.03125 18.503906 -45.515625 17.328125 -44.484375 C 16.148438 -43.460938 15.5625 -42.125 15.5625 -40.46875 C 15.5625 -39.445312 15.796875 -38.550781 16.265625 -37.78125 C 16.742188 -37.019531 17.503906 -36.28125 18.546875 -35.5625 C 19.585938 -34.851562 22.050781 -33.570312 25.9375 -31.71875 C 31.070312 -29.257812 34.585938 -26.796875 36.484375 -24.328125 C 38.390625 -21.859375 39.34375 -18.835938 39.34375 -15.265625 Z M 39.34375 -15.265625 "/></g></g></g><g fill="#000000" fill-opacity="1"><g transform="translate(521.829709, 1040.518383)"><g><path d="M 28.109375 0 L 16.46875 0 L 16.46875 -45.25 L 1.546875 -45.25 L 1.546875 -54.953125 L 43.03125 -54.953125 L 43.03125 -45.25 L 28.109375 -45.25 Z M 28.109375 0 "/></g></g></g><g fill="#000000" fill-opacity="1"><g transform="translate(598.500859, 1040.518383)"><g><path d="M 51.640625 -54.953125 L 51.640625 -19.390625 C 51.640625 -15.328125 50.726562 -11.769531 48.90625 -8.71875 C 47.09375 -5.664062 44.46875 -3.320312 41.03125 -1.6875 C 37.601562 -0.0625 33.546875 0.75 28.859375 0.75 C 21.796875 0.75 16.3125 -1.054688 12.40625 -4.671875 C 8.5 -8.296875 6.546875 -13.253906 6.546875 -19.546875 L 6.546875 -54.953125 L 18.15625 -54.953125 L 18.15625 -21.3125 C 18.15625 -17.070312 19.003906 -13.960938 20.703125 -11.984375 C 22.410156 -10.003906 25.226562 -9.015625 29.15625 -9.015625 C 32.96875 -9.015625 35.734375 -10.007812 37.453125 -12 C 39.171875 -14 40.03125 -17.128906 40.03125 -21.390625 L 40.03125 -54.953125 Z M 22.625 -59.34375 L 22.625 -60.359375 C 26.925781 -65.367188 29.867188 -69.140625 31.453125 -71.671875 L 44.296875 -71.671875 L 44.296875 -70.875 C 42.992188 -69.570312 40.769531 -67.632812 37.625 -65.0625 C 34.488281 -62.5 32.03125 -60.59375 30.25 -59.34375 Z M 22.625 -59.34375 "/></g></g></g><g fill="#000000" fill-opacity="1"><g transform="translate(688.77669, 1040.518383)"><g><path d="M 52.5 -28 C 52.5 -18.957031 49.925781 -12.03125 44.78125 -7.21875 C 39.632812 -2.40625 32.195312 0 22.46875 0 L 6.921875 0 L 6.921875 -54.953125 L 24.171875 -54.953125 C 33.140625 -54.953125 40.101562 -52.582031 45.0625 -47.84375 C 50.019531 -43.101562 52.5 -36.488281 52.5 -28 Z M 40.40625 -27.703125 C 40.40625 -39.503906 35.191406 -45.40625 24.765625 -45.40625 L 18.5625 -45.40625 L 18.5625 -9.625 L 23.5625 -9.625 C 34.789062 -9.625 40.40625 -15.648438 40.40625 -27.703125 Z M 40.40625 -27.703125 "/></g></g></g><g fill="#000000" fill-opacity="1"><g transform="translate(777.849898, 1040.518383)"><g><path d="M 6.921875 0 L 6.921875 -54.953125 L 18.5625 -54.953125 L 18.5625 0 Z M 6.921875 0 "/></g></g></g><g fill="#000000" fill-opacity="1"><g transform="translate(835.429445, 1040.518383)"><g><path d="M 56.78125 -27.546875 C 56.78125 -18.453125 54.523438 -11.460938 50.015625 -6.578125 C 45.503906 -1.691406 39.039062 0.75 30.625 0.75 C 22.207031 0.75 15.742188 -1.691406 11.234375 -6.578125 C 6.722656 -11.460938 4.46875 -18.476562 4.46875 -27.625 C 4.46875 -36.769531 6.726562 -43.753906 11.25 -48.578125 C 15.78125 -53.398438 22.265625 -55.8125 30.703125 -55.8125 C 39.148438 -55.8125 45.609375 -53.378906 50.078125 -48.515625 C 54.546875 -43.660156 56.78125 -36.671875 56.78125 -27.546875 Z M 16.6875 -27.546875 C 16.6875 -21.410156 17.847656 -16.785156 20.171875 -13.671875 C 22.503906 -10.566406 25.988281 -9.015625 30.625 -9.015625 C 39.925781 -9.015625 44.578125 -15.191406 44.578125 -27.546875 C 44.578125 -39.921875 39.953125 -46.109375 30.703125 -46.109375 C 26.066406 -46.109375 22.570312 -44.546875 20.21875 -41.421875 C 17.863281 -38.304688 16.6875 -33.679688 16.6875 -27.546875 Z M 16.6875 -27.546875 "/></g></g></g><g fill="#000000" fill-opacity="1"><g transform="translate(928.786974, 1040.518383)"><g/></g></g><g fill="#000000" fill-opacity="1"><g transform="translate(980.879532, 1040.518383)"><g><path d="M 52.5 -28 C 52.5 -18.957031 49.925781 -12.03125 44.78125 -7.21875 C 39.632812 -2.40625 32.195312 0 22.46875 0 L 6.921875 0 L 6.921875 -54.953125 L 24.171875 -54.953125 C 33.140625 -54.953125 40.101562 -52.582031 45.0625 -47.84375 C 50.019531 -43.101562 52.5 -36.488281 52.5 -28 Z M 40.40625 -27.703125 C 40.40625 -39.503906 35.191406 -45.40625 24.765625 -45.40625 L 18.5625 -45.40625 L 18.5625 -9.625 L 23.5625 -9.625 C 34.789062 -9.625 40.40625 -15.648438 40.40625 -27.703125 Z M 40.40625 -27.703125 "/></g></g></g><g fill="#000000" fill-opacity="1"><g transform="translate(1069.95274, 1040.518383)"><g><path d="M 38.5625 0 L 6.921875 0 L 6.921875 -54.953125 L 38.5625 -54.953125 L 38.5625 -45.40625 L 18.5625 -45.40625 L 18.5625 -33.328125 L 37.171875 -33.328125 L 37.171875 -23.796875 L 18.5625 -23.796875 L 18.5625 -9.625 L 38.5625 -9.625 Z M 38.5625 0 "/></g></g></g><g fill="#000000" fill-opacity="1"><g transform="translate(1145.158261, 1040.518383)"><g/></g></g><g fill="#000000" fill-opacity="1"><g transform="translate(1197.250773, 1040.518383)"><g><path d="M 52.5 -28 C 52.5 -18.957031 49.925781 -12.03125 44.78125 -7.21875 C 39.632812 -2.40625 32.195312 0 22.46875 0 L 6.921875 0 L 6.921875 -54.953125 L 24.171875 -54.953125 C 33.140625 -54.953125 40.101562 -52.582031 45.0625 -47.84375 C 50.019531 -43.101562 52.5 -36.488281 52.5 -28 Z M 40.40625 -27.703125 C 40.40625 -39.503906 35.191406 -45.40625 24.765625 -45.40625 L 18.5625 -45.40625 L 18.5625 -9.625 L 23.5625 -9.625 C 34.789062 -9.625 40.40625 -15.648438 40.40625 -27.703125 Z M 40.40625 -27.703125 "/></g></g></g><g fill="#000000" fill-opacity="1"><g transform="translate(1286.324027, 1040.518383)"><g><path d="M 38.5625 0 L 6.921875 0 L 6.921875 -54.953125 L 38.5625 -54.953125 L 38.5625 -45.40625 L 18.5625 -45.40625 L 18.5625 -33.328125 L 37.171875 -33.328125 L 37.171875 -23.796875 L 18.5625 -23.796875 L 18.5625 -9.625 L 38.5625 -9.625 Z M 38.5625 0 "/></g></g></g><g fill="#000000" fill-opacity="1"><g transform="translate(1361.529411, 1040.518383)"><g><path d="M 39.34375 -15.265625 C 39.34375 -10.296875 37.554688 -6.382812 33.984375 -3.53125 C 30.421875 -0.675781 25.457031 0.75 19.09375 0.75 C 13.226562 0.75 8.039062 -0.351562 3.53125 -2.5625 L 3.53125 -13.375 C 7.238281 -11.726562 10.375 -10.566406 12.9375 -9.890625 C 15.507812 -9.210938 17.863281 -8.875 20 -8.875 C 22.550781 -8.875 24.507812 -9.359375 25.875 -10.328125 C 27.238281 -11.304688 27.921875 -12.757812 27.921875 -14.6875 C 27.921875 -15.769531 27.617188 -16.726562 27.015625 -17.5625 C 26.421875 -18.40625 25.539062 -19.210938 24.375 -19.984375 C 23.207031 -20.765625 20.832031 -22.007812 17.25 -23.71875 C 13.894531 -25.289062 11.375 -26.800781 9.6875 -28.25 C 8.007812 -29.707031 6.671875 -31.398438 5.671875 -33.328125 C 4.671875 -35.265625 4.171875 -37.519531 4.171875 -40.09375 C 4.171875 -44.957031 5.816406 -48.78125 9.109375 -51.5625 C 12.410156 -54.34375 16.96875 -55.734375 22.78125 -55.734375 C 25.632812 -55.734375 28.359375 -55.394531 30.953125 -54.71875 C 33.546875 -54.039062 36.253906 -53.085938 39.078125 -51.859375 L 35.328125 -42.8125 C 32.398438 -44.007812 29.976562 -44.84375 28.0625 -45.3125 C 26.144531 -45.789062 24.257812 -46.03125 22.40625 -46.03125 C 20.195312 -46.03125 18.503906 -45.515625 17.328125 -44.484375 C 16.148438 -43.460938 15.5625 -42.125 15.5625 -40.46875 C 15.5625 -39.445312 15.796875 -38.550781 16.265625 -37.78125 C 16.742188 -37.019531 17.503906 -36.28125 18.546875 -35.5625 C 19.585938 -34.851562 22.050781 -33.570312 25.9375 -31.71875 C 31.070312 -29.257812 34.585938 -26.796875 36.484375 -24.328125 C 38.390625 -21.859375 39.34375 -18.835938 39.34375 -15.265625 Z M 39.34375 -15.265625 "/></g></g></g><g fill="#000000" fill-opacity="1"><g transform="translate(1436.020818, 1040.518383)"><g><path d="M 6.921875 0 L 6.921875 -54.953125 L 18.5625 -54.953125 L 18.5625 0 Z M 6.921875 0 "/></g></g></g><g fill="#000000" fill-opacity="1"><g transform="translate(1493.600365, 1040.518383)"><g><path d="M 27.765625 -30.859375 L 49.578125 -30.859375 L 49.578125 -2.375 C 46.035156 -1.21875 42.703125 -0.410156 39.578125 0.046875 C 36.460938 0.515625 33.28125 0.75 30.03125 0.75 C 21.738281 0.75 15.40625 -1.6875 11.03125 -6.5625 C 6.65625 -11.4375 4.46875 -18.429688 4.46875 -27.546875 C 4.46875 -36.421875 7.003906 -43.335938 12.078125 -48.296875 C 17.148438 -53.253906 24.1875 -55.734375 33.1875 -55.734375 C 38.820312 -55.734375 44.257812 -54.609375 49.5 -52.359375 L 45.625 -43.03125 C 41.613281 -45.03125 37.441406 -46.03125 33.109375 -46.03125 C 28.078125 -46.03125 24.046875 -44.335938 21.015625 -40.953125 C 17.984375 -37.578125 16.46875 -33.035156 16.46875 -27.328125 C 16.46875 -21.359375 17.6875 -16.800781 20.125 -13.65625 C 22.570312 -10.507812 26.125 -8.9375 30.78125 -8.9375 C 33.207031 -8.9375 35.675781 -9.191406 38.1875 -9.703125 L 38.1875 -21.15625 L 27.765625 -21.15625 Z M 27.765625 -30.859375 "/></g></g></g><g fill="#000000" fill-opacity="1"><g transform="translate(1581.43338, 1040.518383)"><g><path d="M 55.65625 0 L 40.859375 0 L 16.953125 -41.5625 L 16.609375 -41.5625 C 17.085938 -34.21875 17.328125 -28.984375 17.328125 -25.859375 L 17.328125 0 L 6.921875 0 L 6.921875 -54.953125 L 21.609375 -54.953125 L 45.46875 -13.796875 L 45.734375 -13.796875 C 45.359375 -20.929688 45.171875 -25.976562 45.171875 -28.9375 L 45.171875 -54.953125 L 55.65625 -54.953125 Z M 55.65625 0 "/></g></g></g><g fill="#000000" fill-opacity="1"><g transform="translate(1676.106335, 1040.518383)"><g/></g></g><g fill="#000000" fill-opacity="1"><g transform="translate(1728.198847, 1040.518383)"><g><path d="M 57.734375 0 L 43.5625 0 L 39.234375 -4.25 C 34.453125 -0.914062 29.039062 0.75 23 0.75 C 16.882812 0.75 12.035156 -0.648438 8.453125 -3.453125 C 4.867188 -6.265625 3.078125 -10.0625 3.078125 -14.84375 C 3.078125 -18.28125 3.832031 -21.207031 5.34375 -23.625 C 6.863281 -26.039062 9.46875 -28.300781 13.15625 -30.40625 C 11.269531 -32.5625 9.898438 -34.617188 9.046875 -36.578125 C 8.203125 -38.546875 7.78125 -40.695312 7.78125 -43.03125 C 7.78125 -46.84375 9.238281 -49.910156 12.15625 -52.234375 C 15.070312 -54.566406 18.972656 -55.734375 23.859375 -55.734375 C 28.523438 -55.734375 32.253906 -54.648438 35.046875 -52.484375 C 37.835938 -50.316406 39.234375 -47.414062 39.234375 -43.78125 C 39.234375 -40.800781 38.367188 -38.078125 36.640625 -35.609375 C 34.910156 -33.140625 32.117188 -30.789062 28.265625 -28.5625 L 38.9375 -18.15625 C 40.71875 -21.082031 42.257812 -24.851562 43.5625 -29.46875 L 55.515625 -29.46875 C 54.609375 -26.082031 53.363281 -22.78125 51.78125 -19.5625 C 50.207031 -16.34375 48.421875 -13.492188 46.421875 -11.015625 Z M 15.140625 -15.9375 C 15.140625 -13.78125 15.945312 -12.0625 17.5625 -10.78125 C 19.1875 -9.507812 21.265625 -8.875 23.796875 -8.875 C 26.953125 -8.875 29.796875 -9.632812 32.328125 -11.15625 L 19.84375 -23.5625 C 18.382812 -22.457031 17.234375 -21.300781 16.390625 -20.09375 C 15.554688 -18.894531 15.140625 -17.507812 15.140625 -15.9375 Z M 28.640625 -42.578125 C 28.640625 -43.910156 28.1875 -44.957031 27.28125 -45.71875 C 26.382812 -46.476562 25.222656 -46.859375 23.796875 -46.859375 C 22.109375 -46.859375 20.78125 -46.457031 19.8125 -45.65625 C 18.851562 -44.851562 18.375 -43.71875 18.375 -42.25 C 18.375 -40.039062 19.566406 -37.609375 21.953125 -34.953125 C 24.109375 -36.148438 25.757812 -37.332031 26.90625 -38.5 C 28.0625 -39.664062 28.640625 -41.023438 28.640625 -42.578125 Z M 28.640625 -42.578125 "/></g></g></g><g fill="#000000" fill-opacity="1"><g transform="translate(1818.023694, 1040.518383)"><g/></g></g><g fill="#000000" fill-opacity="1"><g transform="translate(1870.116298, 1040.518383)"><g><path d="M 18.5625 -29.09375 L 22.40625 -29.09375 C 25.976562 -29.09375 28.65625 -29.796875 30.4375 -31.203125 C 32.21875 -32.617188 33.109375 -34.679688 33.109375 -37.390625 C 33.109375 -40.117188 32.363281 -42.132812 30.875 -43.4375 C 29.382812 -44.75 27.046875 -45.40625 23.859375 -45.40625 L 18.5625 -45.40625 Z M 44.875 -37.8125 C 44.875 -31.894531 43.023438 -27.367188 39.328125 -24.234375 C 35.628906 -21.109375 30.375 -19.546875 23.5625 -19.546875 L 18.5625 -19.546875 L 18.5625 0 L 6.921875 0 L 6.921875 -54.953125 L 24.46875 -54.953125 C 31.132812 -54.953125 36.203125 -53.515625 39.671875 -50.640625 C 43.140625 -47.773438 44.875 -43.5 44.875 -37.8125 Z M 44.875 -37.8125 "/></g></g></g><g fill="#000000" fill-opacity="1"><g transform="translate(1950.545586, 1040.518383)"><g><path d="M 38.5625 0 L 6.921875 0 L 6.921875 -54.953125 L 38.5625 -54.953125 L 38.5625 -45.40625 L 18.5625 -45.40625 L 18.5625 -33.328125 L 37.171875 -33.328125 L 37.171875 -23.796875 L 18.5625 -23.796875 L 18.5625 -9.625 L 38.5625 -9.625 Z M 38.5625 0 "/></g></g></g><g fill="#000000" fill-opacity="1"><g transform="translate(2025.751061, 1040.518383)"><g><path d="M 18.5625 -30.546875 L 22.328125 -30.546875 C 26.003906 -30.546875 28.71875 -31.160156 30.46875 -32.390625 C 32.226562 -33.617188 33.109375 -35.550781 33.109375 -38.1875 C 33.109375 -40.789062 32.210938 -42.644531 30.421875 -43.75 C 28.628906 -44.851562 25.851562 -45.40625 22.09375 -45.40625 L 18.5625 -45.40625 Z M 18.5625 -21.078125 L 18.5625 0 L 6.921875 0 L 6.921875 -54.953125 L 22.921875 -54.953125 C 30.390625 -54.953125 35.914062 -53.59375 39.5 -50.875 C 43.082031 -48.15625 44.875 -44.023438 44.875 -38.484375 C 44.875 -35.253906 43.984375 -32.378906 42.203125 -29.859375 C 40.421875 -27.335938 37.90625 -25.363281 34.65625 -23.9375 C 42.914062 -11.582031 48.300781 -3.601562 50.8125 0 L 37.890625 0 L 24.765625 -21.078125 Z M 18.5625 -21.078125 "/></g></g></g><g fill="#000000" fill-opacity="1"><g transform="translate(2108.660828, 1040.518383)"><g><path d="M 39.34375 -15.265625 C 39.34375 -10.296875 37.554688 -6.382812 33.984375 -3.53125 C 30.421875 -0.675781 25.457031 0.75 19.09375 0.75 C 13.226562 0.75 8.039062 -0.351562 3.53125 -2.5625 L 3.53125 -13.375 C 7.238281 -11.726562 10.375 -10.566406 12.9375 -9.890625 C 15.507812 -9.210938 17.863281 -8.875 20 -8.875 C 22.550781 -8.875 24.507812 -9.359375 25.875 -10.328125 C 27.238281 -11.304688 27.921875 -12.757812 27.921875 -14.6875 C 27.921875 -15.769531 27.617188 -16.726562 27.015625 -17.5625 C 26.421875 -18.40625 25.539062 -19.210938 24.375 -19.984375 C 23.207031 -20.765625 20.832031 -22.007812 17.25 -23.71875 C 13.894531 -25.289062 11.375 -26.800781 9.6875 -28.25 C 8.007812 -29.707031 6.671875 -31.398438 5.671875 -33.328125 C 4.671875 -35.265625 4.171875 -37.519531 4.171875 -40.09375 C 4.171875 -44.957031 5.816406 -48.78125 9.109375 -51.5625 C 12.410156 -54.34375 16.96875 -55.734375 22.78125 -55.734375 C 25.632812 -55.734375 28.359375 -55.394531 30.953125 -54.71875 C 33.546875 -54.039062 36.253906 -53.085938 39.078125 -51.859375 L 35.328125 -42.8125 C 32.398438 -44.007812 29.976562 -44.84375 28.0625 -45.3125 C 26.144531 -45.789062 24.257812 -46.03125 22.40625 -46.03125 C 20.195312 -46.03125 18.503906 -45.515625 17.328125 -44.484375 C 16.148438 -43.460938 15.5625 -42.125 15.5625 -40.46875 C 15.5625 -39.445312 15.796875 -38.550781 16.265625 -37.78125 C 16.742188 -37.019531 17.503906 -36.28125 18.546875 -35.5625 C 19.585938 -34.851562 22.050781 -33.570312 25.9375 -31.71875 C 31.070312 -29.257812 34.585938 -26.796875 36.484375 -24.328125 C 38.390625 -21.859375 39.34375 -18.835938 39.34375 -15.265625 Z M 39.34375 -15.265625 "/></g></g></g><g fill="#000000" fill-opacity="1"><g transform="translate(2183.152235, 1040.518383)"><g><path d="M 56.78125 -27.546875 C 56.78125 -18.453125 54.523438 -11.460938 50.015625 -6.578125 C 45.503906 -1.691406 39.039062 0.75 30.625 0.75 C 22.207031 0.75 15.742188 -1.691406 11.234375 -6.578125 C 6.722656 -11.460938 4.46875 -18.476562 4.46875 -27.625 C 4.46875 -36.769531 6.726562 -43.753906 11.25 -48.578125 C 15.78125 -53.398438 22.265625 -55.8125 30.703125 -55.8125 C 39.148438 -55.8125 45.609375 -53.378906 50.078125 -48.515625 C 54.546875 -43.660156 56.78125 -36.671875 56.78125 -27.546875 Z M 16.6875 -27.546875 C 16.6875 -21.410156 17.847656 -16.785156 20.171875 -13.671875 C 22.503906 -10.566406 25.988281 -9.015625 30.625 -9.015625 C 39.925781 -9.015625 44.578125 -15.191406 44.578125 -27.546875 C 44.578125 -39.921875 39.953125 -46.109375 30.703125 -46.109375 C 26.066406 -46.109375 22.570312 -44.546875 20.21875 -41.421875 C 17.863281 -38.304688 16.6875 -33.679688 16.6875 -27.546875 Z M 16.6875 -27.546875 "/></g></g></g><g fill="#000000" fill-opacity="1"><g transform="translate(2276.509809, 1040.518383)"><g><path d="M 55.65625 0 L 40.859375 0 L 16.953125 -41.5625 L 16.609375 -41.5625 C 17.085938 -34.21875 17.328125 -28.984375 17.328125 -25.859375 L 17.328125 0 L 6.921875 0 L 6.921875 -54.953125 L 21.609375 -54.953125 L 45.46875 -13.796875 L 45.734375 -13.796875 C 45.359375 -20.929688 45.171875 -25.976562 45.171875 -28.9375 L 45.171875 -54.953125 L 55.65625 -54.953125 Z M 55.65625 0 "/></g></g></g><g fill="#000000" fill-opacity="1"><g transform="translate(2371.182764, 1040.518383)"><g><path d="M 40.546875 0 L 36.5625 -13.078125 L 16.53125 -13.078125 L 12.546875 0 L 0 0 L 19.390625 -55.171875 L 33.640625 -55.171875 L 53.109375 0 Z M 33.78125 -22.84375 C 30.101562 -34.695312 28.03125 -41.398438 27.5625 -42.953125 C 27.101562 -44.503906 26.773438 -45.734375 26.578125 -46.640625 C 25.742188 -43.429688 23.375 -35.5 19.46875 -22.84375 Z M 33.78125 -22.84375 "/></g></g></g><g fill="#000000" fill-opacity="1"><g transform="translate(2456.385019, 1040.518383)"><g><path d="M 6.921875 0 L 6.921875 -54.953125 L 18.5625 -54.953125 L 18.5625 -9.625 L 40.859375 -9.625 L 40.859375 0 Z M 6.921875 0 "/></g></g></g><g fill="#000000" fill-opacity="1"><g transform="translate(2531.966291, 1040.518383)"><g><path d="M 6.921875 0 L 6.921875 -54.953125 L 18.5625 -54.953125 L 18.5625 0 Z M 6.921875 0 "/></g></g></g><g fill="#000000" fill-opacity="1"><g transform="translate(2589.545747, 1040.518383)"><g><path d="M 42.734375 0 L 1.84375 0 L 1.84375 -7.546875 L 28.1875 -45.328125 L 2.5625 -45.328125 L 2.5625 -54.953125 L 42.015625 -54.953125 L 42.015625 -47.421875 L 15.703125 -9.625 L 42.734375 -9.625 Z M 42.734375 0 "/></g></g></g><g fill="#000000" fill-opacity="1"><g transform="translate(2666.216885, 1040.518383)"><g><path d="M 40.546875 0 L 36.5625 -13.078125 L 16.53125 -13.078125 L 12.546875 0 L 0 0 L 19.390625 -55.171875 L 33.640625 -55.171875 L 53.109375 0 Z M 33.78125 -22.84375 C 30.101562 -34.695312 28.03125 -41.398438 27.5625 -42.953125 C 27.101562 -44.503906 26.773438 -45.734375 26.578125 -46.640625 C 25.742188 -43.429688 23.375 -35.5 19.46875 -22.84375 Z M 33.78125 -22.84375 "/></g></g></g><g fill="#000000" fill-opacity="1"><g transform="translate(2751.419322, 1040.518383)"><g><path d="M 52.5 -28 C 52.5 -18.957031 49.925781 -12.03125 44.78125 -7.21875 C 39.632812 -2.40625 32.195312 0 22.46875 0 L 6.921875 0 L 6.921875 -54.953125 L 24.171875 -54.953125 C 33.140625 -54.953125 40.101562 -52.582031 45.0625 -47.84375 C 50.019531 -43.101562 52.5 -36.488281 52.5 -28 Z M 40.40625 -27.703125 C 40.40625 -39.503906 35.191406 -45.40625 24.765625 -45.40625 L 18.5625 -45.40625 L 18.5625 -9.625 L 23.5625 -9.625 C 34.789062 -9.625 40.40625 -15.648438 40.40625 -27.703125 Z M 40.40625 -27.703125 "/></g></g></g><g fill="#000000" fill-opacity="1"><g transform="translate(2840.492485, 1040.518383)"><g><path d="M 56.78125 -27.546875 C 56.78125 -18.453125 54.523438 -11.460938 50.015625 -6.578125 C 45.503906 -1.691406 39.039062 0.75 30.625 0.75 C 22.207031 0.75 15.742188 -1.691406 11.234375 -6.578125 C 6.722656 -11.460938 4.46875 -18.476562 4.46875 -27.625 C 4.46875 -36.769531 6.726562 -43.753906 11.25 -48.578125 C 15.78125 -53.398438 22.265625 -55.8125 30.703125 -55.8125 C 39.148438 -55.8125 45.609375 -53.378906 50.078125 -48.515625 C 54.546875 -43.660156 56.78125 -36.671875 56.78125 -27.546875 Z M 16.6875 -27.546875 C 16.6875 -21.410156 17.847656 -16.785156 20.171875 -13.671875 C 22.503906 -10.566406 25.988281 -9.015625 30.625 -9.015625 C 39.925781 -9.015625 44.578125 -15.191406 44.578125 -27.546875 C 44.578125 -39.921875 39.953125 -46.109375 30.703125 -46.109375 C 26.066406 -46.109375 22.570312 -44.546875 20.21875 -41.421875 C 17.863281 -38.304688 16.6875 -33.679688 16.6875 -27.546875 Z M 16.6875 -27.546875 "/></g></g></g><g fill="#000000" fill-opacity="1"><g transform="translate(2933.850059, 1040.518383)"><g><path d="M 39.34375 -15.265625 C 39.34375 -10.296875 37.554688 -6.382812 33.984375 -3.53125 C 30.421875 -0.675781 25.457031 0.75 19.09375 0.75 C 13.226562 0.75 8.039062 -0.351562 3.53125 -2.5625 L 3.53125 -13.375 C 7.238281 -11.726562 10.375 -10.566406 12.9375 -9.890625 C 15.507812 -9.210938 17.863281 -8.875 20 -8.875 C 22.550781 -8.875 24.507812 -9.359375 25.875 -10.328125 C 27.238281 -11.304688 27.921875 -12.757812 27.921875 -14.6875 C 27.921875 -15.769531 27.617188 -16.726562 27.015625 -17.5625 C 26.421875 -18.40625 25.539062 -19.210938 24.375 -19.984375 C 23.207031 -20.765625 20.832031 -22.007812 17.25 -23.71875 C 13.894531 -25.289062 11.375 -26.800781 9.6875 -28.25 C 8.007812 -29.707031 6.671875 -31.398438 5.671875 -33.328125 C 4.671875 -35.265625 4.171875 -37.519531 4.171875 -40.09375 C 4.171875 -44.957031 5.816406 -48.78125 9.109375 -51.5625 C 12.410156 -54.34375 16.96875 -55.734375 22.78125 -55.734375 C 25.632812 -55.734375 28.359375 -55.394531 30.953125 -54.71875 C 33.546875 -54.039062 36.253906 -53.085938 39.078125 -51.859375 L 35.328125 -42.8125 C 32.398438 -44.007812 29.976562 -44.84375 28.0625 -45.3125 C 26.144531 -45.789062 24.257812 -46.03125 22.40625 -46.03125 C 20.195312 -46.03125 18.503906 -45.515625 17.328125 -44.484375 C 16.148438 -43.460938 15.5625 -42.125 15.5625 -40.46875 C 15.5625 -39.445312 15.796875 -38.550781 16.265625 -37.78125 C 16.742188 -37.019531 17.503906 -36.28125 18.546875 -35.5625 C 19.585938 -34.851562 22.050781 -33.570312 25.9375 -31.71875 C 31.070312 -29.257812 34.585938 -26.796875 36.484375 -24.328125 C 38.390625 -21.859375 39.34375 -18.835938 39.34375 -15.265625 Z M 39.34375 -15.265625 "/></g></g></g><g fill="#000000" fill-opacity="1"><g transform="translate(3008.346446, 1040.518383)"><g/></g></g><g transform="matrix(1, 0, 0, 1, 547, 583)"><g clip-path="url(#9270cff513)"><g clip-path="url(#f4a7416cf7)"><g transform="matrix(1, 0, 0, 1, 0, 0.000000000000113687)"><g clip-path="url(#c4f2025284)"><g fill="#000000" fill-opacity="1"><g transform="translate(0.225384, 244.790089)"><g><path d="M 130.859375 -63.4375 C 132.410156 -59.007812 135.507812 -49.265625 140.15625 -34.203125 C 142.59375 -41.953125 146.582031 -54.019531 152.125 -70.40625 L 209.90625 -237.8125 L 252.09375 -237.8125 L 252.09375 0 L 221.875 0 L 221.875 -198.953125 L 152.78125 0 L 124.21875 0 L 55.46875 -202.28125 L 55.46875 0 L 25.25 0 L 25.25 -237.8125 L 72.734375 -237.8125 Z M 130.859375 -63.4375 "/></g></g></g><g fill="#000000" fill-opacity="1"><g transform="translate(327.37891, 244.790089)"><g><path d="M 57.796875 -97.3125 C 57.796875 -76.945312 60.007812 -62.222656 64.4375 -53.140625 C 68.644531 -44.503906 75.175781 -37.53125 84.03125 -32.21875 C 92.882812 -26.90625 104.285156 -24.25 118.234375 -24.25 C 137.503906 -24.25 151.785156 -28.066406 161.078125 -35.703125 C 170.378906 -43.335938 176.140625 -52.082031 178.359375 -61.9375 C 180.578125 -71.789062 181.6875 -83.472656 181.6875 -96.984375 L 181.6875 -237.8125 L 213.234375 -237.8125 L 213.234375 -97.65625 C 213.234375 -85.695312 212.515625 -74.125 211.078125 -62.9375 C 209.640625 -51.757812 205.488281 -41.1875 198.625 -31.21875 C 191.09375 -20.375 181.125 -11.796875 168.71875 -5.484375 C 156.320312 0.828125 140.050781 3.984375 119.90625 3.984375 C 100.414062 3.984375 84.632812 1.109375 72.5625 -4.640625 C 60.5 -10.398438 50.484375 -18.375 42.515625 -28.5625 C 35.429688 -37.414062 30.945312 -47.820312 29.0625 -59.78125 C 27.175781 -71.738281 26.234375 -84.25 26.234375 -97.3125 L 26.234375 -237.8125 L 57.796875 -237.8125 Z M 57.796875 -97.3125 "/></g></g></g><g fill="#000000" fill-opacity="1"><g transform="translate(617.665484, 244.790089)"><g><path d="M 136.515625 -241.796875 C 189.210938 -241.796875 221.539062 -218.328125 233.5 -171.390625 L 205.265625 -163.40625 C 205.046875 -164.070312 204.328125 -166.507812 203.109375 -170.71875 C 201.890625 -174.925781 200.003906 -179.410156 197.453125 -184.171875 C 194.910156 -188.929688 191.976562 -192.863281 188.65625 -195.96875 C 175.144531 -208.582031 157.984375 -214.890625 137.171875 -214.890625 C 109.492188 -214.890625 88.015625 -206.421875 72.734375 -189.484375 C 57.460938 -172.546875 49.828125 -149.242188 49.828125 -119.578125 C 49.828125 -88.347656 57.90625 -64.648438 74.0625 -48.484375 C 90.226562 -32.328125 112.484375 -24.25 140.828125 -24.25 C 151.898438 -24.25 163.96875 -26.847656 177.03125 -32.046875 C 190.09375 -37.253906 200.054688 -42.847656 206.921875 -48.828125 L 206.921875 -93.328125 L 136.515625 -93.328125 L 136.515625 -121.234375 L 237.15625 -121.234375 L 237.15625 -33.21875 C 221.425781 -20.8125 205.535156 -11.507812 189.484375 -5.3125 C 173.429688 0.882812 156.4375 3.984375 138.5 3.984375 C 114.582031 3.984375 93.4375 -1.050781 75.0625 -11.125 C 56.6875 -21.195312 42.457031 -35.421875 32.375 -53.796875 C 22.300781 -72.179688 17.265625 -93.550781 17.265625 -117.90625 C 17.265625 -142.039062 22.023438 -163.460938 31.546875 -182.171875 C 41.066406 -200.890625 54.796875 -215.503906 72.734375 -226.015625 C 90.671875 -236.535156 111.929688 -241.796875 136.515625 -241.796875 Z M 136.515625 -241.796875 "/></g></g></g></g></g></g><g fill="#bf9a5a" fill-opacity="1"><g transform="translate(934.038335, 245.376589)"><g><path d="M 107.609375 -241.796875 C 134.628906 -241.796875 156 -235.484375 171.71875 -222.859375 C 187.4375 -210.242188 195.847656 -192.863281 196.953125 -170.71875 L 166.734375 -168.734375 C 164.960938 -184.003906 159.425781 -195.289062 150.125 -202.59375 C 140.820312 -209.90625 127.09375 -213.5625 108.9375 -213.5625 C 91.664062 -213.5625 78.269531 -210.40625 68.75 -204.09375 C 59.226562 -197.789062 54.46875 -189.210938 54.46875 -178.359375 C 54.46875 -171.273438 56.570312 -165.238281 60.78125 -160.25 C 64.988281 -155.269531 70.96875 -151.675781 78.71875 -149.46875 C 80.488281 -149.019531 87.019531 -147.078125 98.3125 -143.640625 C 109.601562 -140.210938 123.992188 -136.617188 141.484375 -132.859375 C 162.304688 -128.203125 177.921875 -119.894531 188.328125 -107.9375 C 198.734375 -95.988281 203.9375 -82.375 203.9375 -67.09375 C 203.9375 -54.25 200.445312 -42.398438 193.46875 -31.546875 C 186.5 -20.703125 176.367188 -12.066406 163.078125 -5.640625 C 149.796875 0.773438 134.078125 3.984375 115.921875 3.984375 C 95.109375 3.984375 77.171875 0.664062 62.109375 -5.96875 C 47.054688 -12.613281 35.539062 -21.96875 27.5625 -34.03125 C 19.59375 -46.101562 15.390625 -60.222656 14.953125 -76.390625 L 44.84375 -79.046875 C 46.164062 -60.222656 53.582031 -46.382812 67.09375 -37.53125 C 80.601562 -28.675781 96.546875 -24.25 114.921875 -24.25 C 133.296875 -24.25 147.742188 -28.007812 158.265625 -35.53125 C 168.785156 -43.0625 174.046875 -53.25 174.046875 -66.09375 C 174.046875 -83.582031 159.984375 -95.757812 131.859375 -102.625 L 113.265625 -107.28125 C 101.742188 -109.9375 88.457031 -113.476562 73.40625 -117.90625 C 58.125 -122.332031 46.164062 -129.804688 37.53125 -140.328125 C 28.894531 -150.847656 24.578125 -162.859375 24.578125 -176.359375 C 24.578125 -188.765625 27.894531 -199.945312 34.53125 -209.90625 C 41.175781 -219.875 50.753906 -227.679688 63.265625 -233.328125 C 75.773438 -238.972656 90.554688 -241.796875 107.609375 -241.796875 Z M 107.609375 -241.796875 "/></g></g></g><g fill="#bf9a5a" fill-opacity="1"><g transform="translate(1206.057843, 245.376589)"><g><path d="M 58.125 -140.15625 L 181.6875 -140.15625 L 181.6875 -237.8125 L 213.234375 -237.8125 L 213.234375 0 L 181.6875 0 L 181.6875 -112.265625 L 58.125 -112.265625 L 58.125 0 L 26.578125 0 L 26.578125 -237.8125 L 58.125 -237.8125 Z M 58.125 -140.15625 "/></g></g></g><g fill="#bf9a5a" fill-opacity="1"><g transform="translate(1496.344793, 245.376589)"><g><path d="M 125.21875 -241.796875 C 148.90625 -241.796875 169.660156 -236.703125 187.484375 -226.515625 C 205.316406 -216.328125 219.046875 -201.929688 228.671875 -183.328125 C 238.304688 -164.734375 243.125 -143.148438 243.125 -118.578125 C 243.125 -94.210938 238.195312 -72.726562 228.34375 -54.125 C 218.488281 -35.53125 205.035156 -21.195312 187.984375 -11.125 C 170.941406 -1.050781 151.898438 3.984375 130.859375 3.984375 C 107.835938 3.984375 87.632812 -1.328125 70.25 -11.953125 C 52.863281 -22.585938 39.410156 -37.035156 29.890625 -55.296875 C 20.367188 -73.566406 15.609375 -93.773438 15.609375 -115.921875 C 15.609375 -141.160156 20.367188 -163.300781 29.890625 -182.34375 C 39.410156 -201.382812 52.472656 -216.050781 69.078125 -226.34375 C 85.691406 -236.644531 104.40625 -241.796875 125.21875 -241.796875 Z M 48.15625 -115.25 C 48.15625 -96.875 51.585938 -80.707031 58.453125 -66.75 C 65.316406 -52.800781 74.894531 -42.007812 87.1875 -34.375 C 99.476562 -26.738281 113.484375 -22.921875 129.203125 -22.921875 C 145.367188 -22.921875 159.59375 -26.738281 171.875 -34.375 C 184.164062 -42.007812 193.6875 -53.023438 200.4375 -67.421875 C 207.195312 -81.816406 210.578125 -98.867188 210.578125 -118.578125 C 210.578125 -138.054688 207.195312 -155.101562 200.4375 -169.71875 C 193.6875 -184.332031 184.222656 -195.515625 172.046875 -203.265625 C 159.867188 -211.015625 146.03125 -214.890625 130.53125 -214.890625 C 104.40625 -214.890625 84.144531 -206.144531 69.75 -188.65625 C 55.351562 -171.164062 48.15625 -146.695312 48.15625 -115.25 Z M 48.15625 -115.25 "/></g></g></g><g fill="#bf9a5a" fill-opacity="1"><g transform="translate(1805.231295, 245.376589)"><g><path d="M 183.015625 -222.203125 C 190.984375 -215.773438 196.957031 -207.96875 200.9375 -198.78125 C 204.925781 -189.59375 206.921875 -180.238281 206.921875 -170.71875 C 206.921875 -144.375 197.507812 -124.445312 178.6875 -110.9375 C 166.070312 -101.632812 146.695312 -96.984375 120.5625 -96.984375 L 57.125 -96.984375 L 57.125 0 L 25.578125 0 L 25.578125 -237.8125 L 120.234375 -237.8125 C 135.515625 -237.8125 147.914062 -236.703125 157.4375 -234.484375 C 166.957031 -232.273438 175.484375 -228.179688 183.015625 -222.203125 Z M 174.375 -170.0625 C 174.375 -174.925781 173.210938 -180.179688 170.890625 -185.828125 C 168.566406 -191.472656 165.410156 -196.066406 161.421875 -199.609375 C 156.992188 -203.597656 151.898438 -206.3125 146.140625 -207.75 C 140.378906 -209.1875 132.738281 -209.90625 123.21875 -209.90625 L 57.125 -209.90625 L 57.125 -124.890625 L 120.234375 -124.890625 C 138.609375 -124.890625 152.222656 -128.539062 161.078125 -135.84375 C 169.941406 -143.15625 174.375 -154.5625 174.375 -170.0625 Z M 174.375 -170.0625 "/></g></g></g><g fill="#bf9a5a" fill-opacity="1"><g transform="translate(2077.250803, 245.376589)"><g><path d="M 183.015625 -222.203125 C 190.984375 -215.773438 196.957031 -207.96875 200.9375 -198.78125 C 204.925781 -189.59375 206.921875 -180.238281 206.921875 -170.71875 C 206.921875 -144.375 197.507812 -124.445312 178.6875 -110.9375 C 166.070312 -101.632812 146.695312 -96.984375 120.5625 -96.984375 L 57.125 -96.984375 L 57.125 0 L 25.578125 0 L 25.578125 -237.8125 L 120.234375 -237.8125 C 135.515625 -237.8125 147.914062 -236.703125 157.4375 -234.484375 C 166.957031 -232.273438 175.484375 -228.179688 183.015625 -222.203125 Z M 174.375 -170.0625 C 174.375 -174.925781 173.210938 -180.179688 170.890625 -185.828125 C 168.566406 -191.472656 165.410156 -196.066406 161.421875 -199.609375 C 156.992188 -203.597656 151.898438 -206.3125 146.140625 -207.75 C 140.378906 -209.1875 132.738281 -209.90625 123.21875 -209.90625 L 57.125 -209.90625 L 57.125 -124.890625 L 120.234375 -124.890625 C 138.609375 -124.890625 152.222656 -128.539062 161.078125 -135.84375 C 169.941406 -143.15625 174.375 -154.5625 174.375 -170.0625 Z M 174.375 -170.0625 "/></g></g></g></g></g><g clip-path="url(#dc7b86a08e)"><g mask="url(#6ed6726e6a)"><g transform="matrix(1, 0, 0, 1, 1174, 1244)"><g clip-path="url(#8dee06ca58)"><g clip-path="url(#754da7dff2)"><path fill="#bf9a5a" d="M 1052.199219 8.84375 C 1044.65625 8.078125 1032.410156 7.203125 1017.757812 6.65625 C 1003.109375 6 985.832031 5.671875 968.121094 5.671875 C 932.804688 5.5625 895.523438 6.875 873 7.640625 C 855.617188 8.40625 842.386719 9.0625 832.4375 9.5 C 824.019531 9.9375 843.480469 8.734375 873 7.640625 C 886.230469 7.09375 901.863281 6.546875 920.125 6.109375 C 897.273438 6.328125 875.296875 6.875 859.550781 7.3125 C 847.964844 7.859375 836.375 8.515625 824.457031 9.171875 C 772.195312 12.230469 721.792969 16.277344 670.183594 20.542969 C 651.488281 22.179688 610.707031 25.679688 592.558594 27.210938 C 668.328125 20.214844 744.09375 13.433594 819.972656 8.84375 C 817.894531 8.953125 815.820312 9.0625 813.851562 9.171875 C 773.945312 11.574219 734.144531 14.527344 694.238281 17.808594 C 687.460938 18.355469 680.679688 18.902344 673.574219 19.558594 L 694.238281 17.808594 C 711.949219 16.277344 729.117188 14.746094 748.359375 13.214844 C 760.277344 12.339844 773.835938 11.464844 785.859375 10.703125 C 795.59375 10.046875 804.558594 9.609375 813.851562 9.171875 L 831.671875 8.1875 C 833.421875 8.078125 835.28125 7.96875 837.140625 7.859375 C 837.03125 7.859375 836.921875 7.859375 836.921875 7.859375 C 829.484375 7.75 788.15625 9.71875 745.625 12.667969 C 703.09375 15.621094 659.25 19.230469 646.789062 20.433594 C 627 22.289062 608.957031 24.804688 586.871094 26.882812 C 579.546875 27.648438 573.207031 27.976562 567.628906 28.742188 C 567.082031 28.960938 564.242188 29.289062 561.398438 29.617188 C 546.746094 31.039062 531.988281 32.023438 520.617188 33.441406 C 512.742188 34.316406 490.441406 34.535156 488.800781 35.082031 C 482.675781 36.941406 487.160156 35.628906 468.464844 37.160156 C 466.167969 37.378906 458.84375 38.582031 454.359375 38.910156 C 439.050781 40.003906 434.570312 40.878906 416.96875 42.519531 C 390.945312 45.25 385.152344 44.921875 362.082031 47.546875 C 360.660156 47.65625 350.929688 48.640625 341.527344 49.515625 C 332.125 50.390625 323.046875 51.15625 323.046875 51.15625 C 294.730469 53.015625 277.128906 54.761719 254.933594 54.980469 C 229.457031 57.058594 195.347656 57.277344 168.011719 57.386719 C 154.347656 57.386719 144.722656 57.058594 135.539062 56.511719 C 126.355469 55.964844 117.609375 55.199219 105.691406 53.996094 C 98.914062 53.34375 93.882812 52.90625 89.949219 52.25 C 86.011719 51.59375 76.390625 50.9375 69.722656 49.625 L 71.46875 49.515625 C 69.175781 49.078125 64.800781 48.203125 62.613281 47.765625 C 60.425781 47.21875 60.972656 47.21875 61.519531 47.21875 C 62.613281 47.21875 63.816406 47.21875 59.992188 46.234375 C 50.804688 44.046875 41.621094 41.316406 32.65625 37.378906 C 28.175781 35.519531 23.910156 33.441406 20.082031 30.929688 C 16.148438 28.414062 12.648438 25.351562 9.914062 21.746094 C 9.695312 21.527344 9.367188 21.308594 9.148438 20.980469 C 8.601562 20.433594 8.164062 19.777344 7.835938 19.121094 C 6.636719 17.042969 5.652344 14.855469 4.996094 12.558594 C 4.339844 11.03125 4.121094 11.683594 3.683594 10.59375 C 3.574219 10.59375 3.464844 10.484375 3.246094 10.15625 C 3.136719 9.828125 2.917969 9.390625 2.808594 8.84375 C 2.699219 8.296875 2.480469 7.640625 2.371094 6.984375 C 2.261719 6.328125 2.152344 5.5625 2.042969 4.90625 C 1.714844 2.0625 1.605469 -0.449219 0.949219 1.078125 C 0.621094 1.515625 0.402344 2.828125 0.292969 4.90625 C 0.292969 6.984375 0.292969 9.609375 0.839844 12.558594 C 1.824219 18.355469 5.214844 24.367188 7.730469 27.429688 C 8.273438 28.195312 7.835938 27.867188 6.964844 27.101562 C 6.199219 26.335938 5.105469 25.242188 4.449219 24.476562 C 5.980469 26.773438 7.292969 28.304688 8.273438 29.507812 C 8.710938 30.054688 9.148438 30.492188 9.476562 30.929688 C 9.804688 31.257812 10.023438 31.585938 10.242188 31.695312 C 10.898438 32.457031 10.023438 31.914062 8.382812 30.492188 C 9.257812 31.367188 10.242188 32.242188 10.898438 32.894531 C 11.554688 33.550781 12.101562 33.878906 12.101562 33.878906 C 11.882812 33.769531 11.335938 33.441406 10.789062 33.113281 C 10.351562 32.785156 9.914062 32.566406 9.914062 32.566406 C 12.429688 34.972656 13.960938 40.332031 16.804688 42.191406 C 19.644531 44.046875 23.691406 42.410156 26.753906 43.9375 C 32.765625 46.890625 39.109375 49.296875 45.449219 51.15625 C 58.132812 54.980469 71.03125 57.277344 83.058594 58.699219 C 88.199219 59.355469 96.835938 60.011719 102.519531 60.339844 C 105.363281 60.449219 111.597656 61.214844 113.890625 61.324219 C 117.9375 61.324219 117.390625 60.886719 119.03125 60.558594 C 127.886719 61.214844 141.882812 62.089844 153.472656 62.199219 C 165.0625 62.417969 174.355469 62.199219 173.808594 61.542969 C 188.019531 61.542969 190.863281 60.886719 205.625 60.449219 C 225.195312 59.902344 250.011719 58.699219 274.503906 57.277344 C 287.84375 56.402344 300.746094 55.527344 313.753906 54.761719 C 318.566406 54.433594 323.265625 54.105469 327.75 53.777344 C 376.292969 50.171875 418.386719 46.5625 460.152344 42.847656 C 501.917969 39.128906 543.359375 35.082031 590.589844 30.273438 C 638.152344 25.351562 686.914062 20.652344 734.144531 16.933594 C 781.378906 13.105469 826.972656 10.265625 868.191406 8.515625 C 909.410156 6.765625 946.035156 6.21875 975.445312 6.546875 C 1004.75 6.875 1026.726562 7.859375 1038.421875 8.515625 C 1043.015625 8.515625 1047.609375 8.734375 1052.199219 8.84375 Z M 1052.199219 8.84375 " fill-opacity="1" fill-rule="nonzero"/></g></g></g></g><g mask="url(#d89480a4a6)"><g transform="matrix(1, 0, 0, 1, 1174, 1244)"><g clip-path="url(#dc1e42a0cd)"><g clip-path="url(#2b1477f86e)"><path fill="#bf9a5a" d="M 1052.199219 8.84375 C 1044.65625 8.078125 1032.410156 7.203125 1017.757812 6.65625 C 1003.109375 6 985.832031 5.671875 968.121094 5.671875 C 932.804688 5.5625 895.523438 6.875 873 7.640625 C 855.617188 8.40625 842.386719 9.0625 832.4375 9.5 C 824.019531 9.9375 843.480469 8.734375 873 7.640625 C 886.230469 7.09375 901.863281 6.546875 920.125 6.109375 C 897.273438 6.328125 875.296875 6.875 859.550781 7.3125 C 847.964844 7.859375 836.375 8.515625 824.457031 9.171875 C 772.195312 12.230469 721.792969 16.277344 670.183594 20.542969 C 651.488281 22.179688 610.707031 25.679688 592.558594 27.210938 C 668.328125 20.214844 744.09375 13.433594 819.972656 8.84375 C 817.894531 8.953125 815.820312 9.0625 813.851562 9.171875 C 773.945312 11.574219 734.144531 14.527344 694.238281 17.808594 C 687.460938 18.355469 680.679688 18.902344 673.574219 19.558594 L 694.238281 17.808594 C 711.949219 16.277344 729.117188 14.746094 748.359375 13.214844 C 760.277344 12.339844 773.835938 11.464844 785.859375 10.703125 C 795.59375 10.046875 804.558594 9.609375 813.851562 9.171875 L 831.671875 8.1875 C 833.421875 8.078125 835.28125 7.96875 837.140625 7.859375 C 837.03125 7.859375 836.921875 7.859375 836.921875 7.859375 C 829.484375 7.75 788.15625 9.71875 745.625 12.667969 C 703.09375 15.621094 659.25 19.230469 646.789062 20.433594 C 627 22.289062 608.957031 24.804688 586.871094 26.882812 C 579.546875 27.648438 573.207031 27.976562 567.628906 28.742188 C 567.082031 28.960938 564.242188 29.289062 561.398438 29.617188 C 546.746094 31.039062 531.988281 32.023438 520.617188 33.441406 C 512.742188 34.316406 490.441406 34.535156 488.800781 35.082031 C 482.675781 36.941406 487.160156 35.628906 468.464844 37.160156 C 466.167969 37.378906 458.84375 38.582031 454.359375 38.910156 C 439.050781 40.003906 434.570312 40.878906 416.96875 42.519531 C 390.945312 45.25 385.152344 44.921875 362.082031 47.546875 C 360.660156 47.65625 350.929688 48.640625 341.527344 49.515625 C 332.125 50.390625 323.046875 51.15625 323.046875 51.15625 C 294.730469 53.015625 277.128906 54.761719 254.933594 54.980469 C 229.457031 57.058594 195.347656 57.277344 168.011719 57.386719 C 154.347656 57.386719 144.722656 57.058594 135.539062 56.511719 C 126.355469 55.964844 117.609375 55.199219 105.691406 53.996094 C 98.914062 53.34375 93.882812 52.90625 89.949219 52.25 C 86.011719 51.59375 76.390625 50.9375 69.722656 49.625 L 71.46875 49.515625 C 69.175781 49.078125 64.800781 48.203125 62.613281 47.765625 C 60.425781 47.21875 60.972656 47.21875 61.519531 47.21875 C 62.613281 47.21875 63.816406 47.21875 59.992188 46.234375 C 50.804688 44.046875 41.621094 41.316406 32.65625 37.378906 C 28.175781 35.519531 23.910156 33.441406 20.082031 30.929688 C 16.148438 28.414062 12.648438 25.351562 9.914062 21.746094 C 9.695312 21.527344 9.367188 21.308594 9.148438 20.980469 C 8.601562 20.433594 8.164062 19.777344 7.835938 19.121094 C 6.636719 17.042969 5.652344 14.855469 4.996094 12.558594 C 4.339844 11.03125 4.121094 11.683594 3.683594 10.59375 C 3.574219 10.59375 3.464844 10.484375 3.246094 10.15625 C 3.136719 9.828125 2.917969 9.390625 2.808594 8.84375 C 2.699219 8.296875 2.480469 7.640625 2.371094 6.984375 C 2.261719 6.328125 2.152344 5.5625 2.042969 4.90625 C 1.714844 2.0625 1.605469 -0.449219 0.949219 1.078125 C 0.621094 1.515625 0.402344 2.828125 0.292969 4.90625 C 0.292969 6.984375 0.292969 9.609375 0.839844 12.558594 C 1.824219 18.355469 5.214844 24.367188 7.730469 27.429688 C 8.273438 28.195312 7.835938 27.867188 6.964844 27.101562 C 6.199219 26.335938 5.105469 25.242188 4.449219 24.476562 C 5.980469 26.773438 7.292969 28.304688 8.273438 29.507812 C 8.710938 30.054688 9.148438 30.492188 9.476562 30.929688 C 9.804688 31.257812 10.023438 31.585938 10.242188 31.695312 C 10.898438 32.457031 10.023438 31.914062 8.382812 30.492188 C 9.257812 31.367188 10.242188 32.242188 10.898438 32.894531 C 11.554688 33.550781 12.101562 33.878906 12.101562 33.878906 C 11.882812 33.769531 11.335938 33.441406 10.789062 33.113281 C 10.351562 32.785156 9.914062 32.566406 9.914062 32.566406 C 12.429688 34.972656 13.960938 40.332031 16.804688 42.191406 C 19.644531 44.046875 23.691406 42.410156 26.753906 43.9375 C 32.765625 46.890625 39.109375 49.296875 45.449219 51.15625 C 58.132812 54.980469 71.03125 57.277344 83.058594 58.699219 C 88.199219 59.355469 96.835938 60.011719 102.519531 60.339844 C 105.363281 60.449219 111.597656 61.214844 113.890625 61.324219 C 117.9375 61.324219 117.390625 60.886719 119.03125 60.558594 C 127.886719 61.214844 141.882812 62.089844 153.472656 62.199219 C 165.0625 62.417969 174.355469 62.199219 173.808594 61.542969 C 188.019531 61.542969 190.863281 60.886719 205.625 60.449219 C 225.195312 59.902344 250.011719 58.699219 274.503906 57.277344 C 287.84375 56.402344 300.746094 55.527344 313.753906 54.761719 C 318.566406 54.433594 323.265625 54.105469 327.75 53.777344 C 376.292969 50.171875 418.386719 46.5625 460.152344 42.847656 C 501.917969 39.128906 543.359375 35.082031 590.589844 30.273438 C 638.152344 25.351562 686.914062 20.652344 734.144531 16.933594 C 781.378906 13.105469 826.972656 10.265625 868.191406 8.515625 C 909.410156 6.765625 946.035156 6.21875 975.445312 6.546875 C 1004.75 6.875 1026.726562 7.859375 1038.421875 8.515625 C 1043.015625 8.515625 1047.609375 8.734375 1052.199219 8.84375 Z M 1052.199219 8.84375 " fill-opacity="1" fill-rule="nonzero"/></g></g></g></g><g mask="url(#9969c2f8f9)"><g transform="matrix(1, 0, 0, 1, 1174, 1244)"><g clip-path="url(#76568a12c6)"><g clip-path="url(#bb6d0e34ca)"><path fill="#bf9a5a" d="M 1052.199219 8.84375 C 1044.65625 8.078125 1032.410156 7.203125 1017.757812 6.65625 C 1003.109375 6 985.832031 5.671875 968.121094 5.671875 C 932.804688 5.5625 895.523438 6.875 873 7.640625 C 855.617188 8.40625 842.386719 9.0625 832.4375 9.5 C 824.019531 9.9375 843.480469 8.734375 873 7.640625 C 886.230469 7.09375 901.863281 6.546875 920.125 6.109375 C 897.273438 6.328125 875.296875 6.875 859.550781 7.3125 C 847.964844 7.859375 836.375 8.515625 824.457031 9.171875 C 772.195312 12.230469 721.792969 16.277344 670.183594 20.542969 C 651.488281 22.179688 610.707031 25.679688 592.558594 27.210938 C 668.328125 20.214844 744.09375 13.433594 819.972656 8.84375 C 817.894531 8.953125 815.820312 9.0625 813.851562 9.171875 C 773.945312 11.574219 734.144531 14.527344 694.238281 17.808594 C 687.460938 18.355469 680.679688 18.902344 673.574219 19.558594 L 694.238281 17.808594 C 711.949219 16.277344 729.117188 14.746094 748.359375 13.214844 C 760.277344 12.339844 773.835938 11.464844 785.859375 10.703125 C 795.59375 10.046875 804.558594 9.609375 813.851562 9.171875 L 831.671875 8.1875 C 833.421875 8.078125 835.28125 7.96875 837.140625 7.859375 C 837.03125 7.859375 836.921875 7.859375 836.921875 7.859375 C 829.484375 7.75 788.15625 9.71875 745.625 12.667969 C 703.09375 15.621094 659.25 19.230469 646.789062 20.433594 C 627 22.289062 608.957031 24.804688 586.871094 26.882812 C 579.546875 27.648438 573.207031 27.976562 567.628906 28.742188 C 567.082031 28.960938 564.242188 29.289062 561.398438 29.617188 C 546.746094 31.039062 531.988281 32.023438 520.617188 33.441406 C 512.742188 34.316406 490.441406 34.535156 488.800781 35.082031 C 482.675781 36.941406 487.160156 35.628906 468.464844 37.160156 C 466.167969 37.378906 458.84375 38.582031 454.359375 38.910156 C 439.050781 40.003906 434.570312 40.878906 416.96875 42.519531 C 390.945312 45.25 385.152344 44.921875 362.082031 47.546875 C 360.660156 47.65625 350.929688 48.640625 341.527344 49.515625 C 332.125 50.390625 323.046875 51.15625 323.046875 51.15625 C 294.730469 53.015625 277.128906 54.761719 254.933594 54.980469 C 229.457031 57.058594 195.347656 57.277344 168.011719 57.386719 C 154.347656 57.386719 144.722656 57.058594 135.539062 56.511719 C 126.355469 55.964844 117.609375 55.199219 105.691406 53.996094 C 98.914062 53.34375 93.882812 52.90625 89.949219 52.25 C 86.011719 51.59375 76.390625 50.9375 69.722656 49.625 L 71.46875 49.515625 C 69.175781 49.078125 64.800781 48.203125 62.613281 47.765625 C 60.425781 47.21875 60.972656 47.21875 61.519531 47.21875 C 62.613281 47.21875 63.816406 47.21875 59.992188 46.234375 C 50.804688 44.046875 41.621094 41.316406 32.65625 37.378906 C 28.175781 35.519531 23.910156 33.441406 20.082031 30.929688 C 16.148438 28.414062 12.648438 25.351562 9.914062 21.746094 C 9.695312 21.527344 9.367188 21.308594 9.148438 20.980469 C 8.601562 20.433594 8.164062 19.777344 7.835938 19.121094 C 6.636719 17.042969 5.652344 14.855469 4.996094 12.558594 C 4.339844 11.03125 4.121094 11.683594 3.683594 10.59375 C 3.574219 10.59375 3.464844 10.484375 3.246094 10.15625 C 3.136719 9.828125 2.917969 9.390625 2.808594 8.84375 C 2.699219 8.296875 2.480469 7.640625 2.371094 6.984375 C 2.261719 6.328125 2.152344 5.5625 2.042969 4.90625 C 1.714844 2.0625 1.605469 -0.449219 0.949219 1.078125 C 0.621094 1.515625 0.402344 2.828125 0.292969 4.90625 C 0.292969 6.984375 0.292969 9.609375 0.839844 12.558594 C 1.824219 18.355469 5.214844 24.367188 7.730469 27.429688 C 8.273438 28.195312 7.835938 27.867188 6.964844 27.101562 C 6.199219 26.335938 5.105469 25.242188 4.449219 24.476562 C 5.980469 26.773438 7.292969 28.304688 8.273438 29.507812 C 8.710938 30.054688 9.148438 30.492188 9.476562 30.929688 C 9.804688 31.257812 10.023438 31.585938 10.242188 31.695312 C 10.898438 32.457031 10.023438 31.914062 8.382812 30.492188 C 9.257812 31.367188 10.242188 32.242188 10.898438 32.894531 C 11.554688 33.550781 12.101562 33.878906 12.101562 33.878906 C 11.882812 33.769531 11.335938 33.441406 10.789062 33.113281 C 10.351562 32.785156 9.914062 32.566406 9.914062 32.566406 C 12.429688 34.972656 13.960938 40.332031 16.804688 42.191406 C 19.644531 44.046875 23.691406 42.410156 26.753906 43.9375 C 32.765625 46.890625 39.109375 49.296875 45.449219 51.15625 C 58.132812 54.980469 71.03125 57.277344 83.058594 58.699219 C 88.199219 59.355469 96.835938 60.011719 102.519531 60.339844 C 105.363281 60.449219 111.597656 61.214844 113.890625 61.324219 C 117.9375 61.324219 117.390625 60.886719 119.03125 60.558594 C 127.886719 61.214844 141.882812 62.089844 153.472656 62.199219 C 165.0625 62.417969 174.355469 62.199219 173.808594 61.542969 C 188.019531 61.542969 190.863281 60.886719 205.625 60.449219 C 225.195312 59.902344 250.011719 58.699219 274.503906 57.277344 C 287.84375 56.402344 300.746094 55.527344 313.753906 54.761719 C 318.566406 54.433594 323.265625 54.105469 327.75 53.777344 C 376.292969 50.171875 418.386719 46.5625 460.152344 42.847656 C 501.917969 39.128906 543.359375 35.082031 590.589844 30.273438 C 638.152344 25.351562 686.914062 20.652344 734.144531 16.933594 C 781.378906 13.105469 826.972656 10.265625 868.191406 8.515625 C 909.410156 6.765625 946.035156 6.21875 975.445312 6.546875 C 1004.75 6.875 1026.726562 7.859375 1038.421875 8.515625 C 1043.015625 8.515625 1047.609375 8.734375 1052.199219 8.84375 Z M 1052.199219 8.84375 " fill-opacity="1" fill-rule="nonzero"/></g></g></g></g></g></g></g></g></svg>